<?xml version="1.0" standalone="no"?>
<!DOCTYPE svg PUBLIC "-//W3C//DTD SVG 20010904//EN"
 "http://www.w3.org/TR/2001/REC-SVG-20010904/DTD/svg10.dtd">
<svg version="1.0" xmlns="http://www.w3.org/2000/svg"
 width="500.000000pt" height="500.000000pt" viewBox="0 0 500.000000 500.000000"
 preserveAspectRatio="xMidYMid meet">

<g transform="translate(0.000000,500.000000) scale(0.100000,-0.100000)"
fill="#000000" stroke="none">
<path d="M0 2500 l0 -2500 2500 0 2500 0 0 2500 0 2500 -2500 0 -2500 0 0
-2500z m2660 1870 c273 -24 587 -126 805 -260 420 -258 723 -660 844 -1122 79
-297 87 -565 26 -862 -33 -163 -73 -283 -146 -436 -217 -452 -602 -797 -1070
-958 -241 -83 -402 -107 -681 -100 -206 6 -342 28 -515 84 -314 102 -605 291
-820 534 -80 91 -225 290 -190 262 20 -16 97 -18 126 -3 17 10 19 16 11 37 -6
14 -10 53 -10 87 0 80 23 317 30 317 3 0 32 -51 65 -113 112 -214 176 -297
230 -297 14 0 25 -4 25 -8 0 -18 153 -162 250 -234 239 -178 520 -277 836
-293 297 -15 585 54 859 207 233 130 459 349 605 585 39 62 48 71 88 82 33 9
43 15 38 27 -20 52 -17 91 14 169 40 101 86 277 101 390 19 144 7 436 -24 565
-97 411 -327 742 -670 964 -163 107 -388 192 -583 221 -877 131 -1712 -491
-1864 -1390 -16 -99 -17 -100 -46 -103 l-30 -3 4 115 c7 185 -1 201 -106 208
l-44 3 2 -131 c0 -73 -2 -144 -6 -159 -6 -24 -11 -26 -40 -23 -31 4 -34 2 -34
-24 0 -27 30 -68 49 -68 6 0 7 -44 4 -108 -6 -104 -5 -109 19 -136 19 -23 33
-29 64 -29 22 0 50 3 62 7 20 7 22 12 15 44 -7 33 -8 211 -1 217 2 2 18 6 36
10 l32 7 0 -119 c0 -119 18 -269 44 -369 l14 -55 -34 21 c-18 12 -59 24 -90
27 l-55 6 8 -39 c12 -59 7 -213 -12 -374 -9 -79 -14 -157 -11 -172 3 -15 4
-28 2 -28 -8 0 -68 117 -111 216 -116 271 -170 593 -146 873 40 457 224 861
536 1177 323 327 726 515 1190 554 134 11 179 11 305 0z m260 -224 c193 -35
405 -118 551 -216 339 -228 569 -587 640 -998 31 -185 20 -452 -25 -617 l-14
-50 5 65 c7 80 -12 176 -36 189 -10 6 -41 13 -70 17 l-53 7 7 -89 c6 -82 -9
-316 -22 -338 -3 -4 -32 43 -65 105 -60 117 -101 175 -152 219 -42 36 -48 39
-108 46 l-55 6 4 -113 c3 -71 -1 -169 -11 -258 -20 -177 -20 -224 -1 -260 21
-42 68 -53 133 -30 28 9 30 13 21 35 -12 34 -10 175 5 309 l12 110 39 -73 c85
-157 138 -247 167 -283 35 -43 36 -38 -53 -169 -81 -118 -153 -201 -250 -287
-326 -289 -742 -434 -1149 -403 -269 20 -504 103 -724 254 -99 67 -266 220
-266 242 0 11 4 12 19 4 26 -14 81 -12 110 3 17 9 24 21 26 47 1 20 10 56 19
82 20 51 16 49 152 63 l62 7 7 -50 c3 -27 15 -63 26 -81 15 -25 25 -31 54 -31
51 0 119 36 109 58 -24 58 -37 108 -59 235 -42 236 -56 309 -66 334 -10 26
-33 37 -100 47 l-46 7 -12 -43 c-18 -59 -59 -139 -143 -277 -89 -145 -88 -145
-127 -136 l-31 7 6 131 c10 205 -6 237 -121 237 l-42 0 9 -47 c9 -48 3 -257
-11 -343 l-7 -45 -44 85 c-25 47 -46 92 -48 100 -2 8 -19 65 -38 125 -45 148
-64 262 -71 431 l-6 141 39 5 c21 3 40 5 40 4 1 -1 -2 -35 -7 -76 -14 -125 13
-181 85 -179 80 1 81 3 78 120 -2 57 2 144 8 192 13 106 16 260 6 305 -9 39
-51 62 -112 62 -34 0 -36 1 -29 28 13 55 106 232 176 338 136 206 394 436 612
546 141 71 352 136 512 157 93 13 329 6 435 -13z m-1740 -1179 c0 -51 -3 -122
-6 -159 -7 -66 -7 -66 -41 -73 -19 -3 -37 -4 -39 -2 -14 14 63 340 78 331 4
-3 8 -47 8 -97z m647 -1153 c-3 -3 -37 -4 -76 -2 l-71 3 67 115 68 115 8 -113
c5 -63 7 -116 4 -118z m-365 -91 c-21 -45 -28 -42 -24 11 4 40 6 44 22 34 17
-11 17 -14 2 -45z"/>
<path d="M3745 3400 c-42 -9 -71 -26 -90 -53 -10 -14 -18 -18 -23 -11 -16 24
-59 44 -93 44 l-36 0 -7 -162 c-9 -201 -28 -384 -41 -397 -14 -14 -172 -71
-197 -71 -20 0 -21 4 -15 68 4 37 7 84 7 105 l0 37 45 0 c71 0 144 19 156 41
14 28 2 61 -20 54 -23 -7 -153 -35 -165 -35 -5 0 -6 23 -2 50 10 75 -1 119
-36 140 l-29 17 108 5 c120 5 169 22 179 62 9 38 1 61 -21 58 -11 -1 -92 -6
-181 -11 -223 -13 -273 -37 -240 -116 16 -38 19 -40 46 -25 15 8 18 5 22 -18
2 -15 0 -67 -4 -117 -27 -336 -23 -382 33 -405 48 -20 300 6 342 35 13 9 27
11 42 5 12 -5 42 -4 67 1 l46 10 -6 86 c-5 90 0 103 43 103 14 0 28 -16 49
-55 15 -30 46 -71 67 -90 32 -28 47 -35 82 -35 52 0 126 41 127 71 0 4 -20 14
-45 23 -46 18 -145 99 -145 119 1 7 24 28 52 47 96 65 152 182 128 269 -27 99
-146 173 -245 151z m68 -140 c45 -50 34 -116 -31 -183 -32 -33 -117 -87 -138
-87 -14 0 6 244 22 268 33 50 102 51 147 2z"/>
<path d="M2680 3271 c-95 -29 -168 -94 -214 -191 -27 -57 -31 -76 -31 -150 0
-100 21 -166 74 -237 84 -110 227 -125 305 -32 26 30 29 31 38 15 31 -54 71
-68 137 -45 25 9 30 15 24 28 -4 9 -9 66 -10 128 -1 108 -1 112 20 115 18 2
22 10 22 38 0 29 -3 35 -20 32 -11 -1 -74 -7 -139 -13 -142 -11 -171 -22 -171
-64 0 -33 -4 -32 88 -19 l47 7 0 -42 c0 -78 -31 -111 -104 -111 -144 -1 -197
261 -79 391 72 80 157 71 196 -21 23 -54 30 -57 82 -36 84 36 38 163 -72 200
-48 17 -149 20 -193 7z"/>
<path d="M2265 3018 c-1 -250 -6 -261 -70 -137 -65 127 -116 200 -166 240 -36
28 -52 34 -105 37 l-62 4 9 -38 c4 -22 8 -70 7 -109 l-1 -70 -7 65 c-12 104
-12 104 -102 115 l-56 7 5 -103 c12 -238 -65 -449 -163 -449 -54 0 -60 28 -39
182 30 218 13 289 -74 317 -34 11 -51 11 -81 2 l-38 -11 15 -43 c13 -34 14
-71 8 -202 -13 -265 -13 -280 11 -312 30 -40 82 -73 117 -73 49 0 113 38 167
98 l50 56 0 -31 c0 -17 9 -42 21 -57 17 -21 29 -26 65 -26 64 0 86 14 78 48
l-7 27 23 -29 c22 -26 27 -28 81 -24 32 2 61 7 65 10 3 4 1 29 -5 56 -10 48
-3 181 17 339 l7 54 80 -151 c116 -219 168 -277 236 -264 62 12 69 19 57 61
-11 39 -7 135 11 338 11 123 3 218 -22 242 -10 10 -39 18 -74 21 l-58 4 0
-194z"/>
<path d="M3140 2446 c-100 -28 -176 -90 -220 -179 -89 -183 -47 -395 93 -470
34 -17 59 -22 127 -22 73 0 94 4 147 29 142 65 211 199 201 388 -3 69 -9 93
-31 131 -66 112 -187 159 -317 123z m133 -122 c66 -66 63 -283 -5 -384 -47
-68 -121 -94 -165 -58 -58 47 -75 221 -33 331 27 71 71 124 114 135 40 11 60
5 89 -24z"/>
<path d="M2804 2410 c-130 -14 -154 -20 -170 -46 -23 -35 -11 -57 26 -49 l30
7 0 -85 c0 -46 -7 -149 -16 -228 -9 -79 -13 -161 -10 -181 5 -30 3 -38 -12
-43 -22 -6 -40 -42 -35 -67 3 -12 12 -16 36 -12 18 2 71 8 119 14 108 11 130
22 126 58 -3 23 -8 27 -40 30 l-38 3 0 67 c0 37 5 105 10 152 12 101 14 228 5
252 -4 10 -15 20 -26 23 -32 11 -21 25 19 25 51 0 84 24 80 58 -3 31 -9 32
-104 22z"/>
<path d="M2490 2359 c-19 -4 -113 -15 -209 -23 -206 -19 -243 -28 -270 -63
-24 -29 -25 -42 -10 -76 l11 -25 42 19 c24 10 69 21 101 25 l58 7 -6 -104 c-2
-57 -11 -165 -18 -239 -12 -129 -12 -138 7 -175 23 -48 60 -62 122 -45 40 10
42 13 35 38 -10 35 -9 193 2 355 8 125 8 128 -15 152 l-23 25 67 0 c104 0 156
31 156 92 0 37 -11 45 -50 37z"/>
</g>
</svg>
